<svg xmlns="http://www.w3.org/2000/svg" width="160" height="148" viewBox="0 0 160 148">
  <g stroke-linejoin="round" stroke-linecap="round">
    <path d="M23 105 80 76l57 29-57 29z" fill="#83745a" stroke="#40382d" stroke-width="3"/>
    <path d="M31 102 80 79l49 23-49 24z" fill="#b1a68c" stroke="#615746" stroke-width="2"/>
    <g fill="none" stroke="#9a6636" stroke-width="6">
      <path d="M42 98V52M118 98V52M80 80V31"/>
      <path d="M42 54 80 31l38 23M42 76l38-22 38 22M42 98l38-22 38 22"/>
      <path d="M42 54 42 98M80 31v49M118 54v44"/>
    </g>
    <g fill="none" stroke="#d09b5e" stroke-width="2">
      <path d="M39 63 55 54M39 84 55 75M105 54l16 9M105 75l16 9M71 43l18 0"/>
    </g>
    <g stroke="#75512f" stroke-width="3">
      <path d="M30 89 50 78M110 79l20 11M31 111l20-11M109 100l20 11"/>
      <path d="M31 88v31M129 88v31"/>
    </g>
    <path d="M28 93h23M109 93h23M28 105h23M109 105h23" stroke="#ba844b" stroke-width="4"/>
    <path d="M55 105 65 84M61 106l10-21" stroke="#c79a65" stroke-width="3"/>
    <path d="M56 94h11M54 100h11" stroke="#7b552f" stroke-width="2"/>
  </g>
</svg>