<svg xmlns="http://www.w3.org/2000/svg" viewBox="0 0 1920 1080"><defs><linearGradient id="ice" x1="0" y1="0" x2="0" y2="1"><stop stop-color="#e8fbff"/><stop offset=".35" stop-color="#76dfff"/><stop offset=".72" stop-color="#2687c9"/><stop offset="1" stop-color="#12365f"/></linearGradient><linearGradient id="deep" x1="0" y1="0" x2="0" y2="1"><stop stop-color="#5ed6ff"/><stop offset="1" stop-color="#102b56"/></linearGradient><filter id="g"><feGaussianBlur stdDeviation="10" result="b"/><feMerge><feMergeNode in="b"/><feMergeNode in="SourceGraphic"/></feMerge></filter></defs><path fill="url(#deep)" stroke="#092448" stroke-width="10" d="M80 770 Q210 730 350 742 H1570 Q1710 730 1840 770 L1790 946 Q1605 982 1440 956 H480 Q300 982 130 946Z"/><path fill="url(#ice)" stroke="#2078a8" stroke-width="8" d="M105 750 Q220 708 360 724 H1560 Q1700 708 1815 750 L1748 822 H170Z"/><path fill="#dffaff" opacity=".45" d="M205 768H1718l-35 28H238z"/><g fill="url(#ice)" stroke="#1f76ae" stroke-width="7" filter="url(#g)"><path d="M95 742 170 395l82 347z"/><path d="m175 742 125-500 108 500z"/><path d="m300 742 95-355 98 355z"/><path d="m420 742 72-260 82 260z"/><path d="m1340 742 80-300 92 300z"/><path d="m1465 742 102-420 110 420z"/><path d="m1600 742 118-510 108 510z"/><path d="m1720 742 65-320 72 320z"/></g><g fill="#c9f7ff" opacity=".8"><path d="m570 747 52-138 40 138z"/><path d="m1260 747 54-150 44 150z"/></g><ellipse cx="960" cy="754" rx="250" ry="56" fill="#8ee6ff" opacity=".35" stroke="#d9fbff" stroke-width="6"/><path d="M755 755h410M960 716v76" stroke="#eaffff" stroke-width="4" opacity=".7"/><path d="m250 864 75 82m210-82 55 94m780-94-58 94m350-94-80 82" stroke="#85dcff" stroke-width="8" opacity=".55"/></svg>