<svg xmlns="http://www.w3.org/2000/svg" viewBox="0 0 1920 1080"><defs><linearGradient id="stone" x1="0" y1="0" x2="0" y2="1"><stop stop-color="#7f8773"/><stop offset=".45" stop-color="#4d5847"/><stop offset="1" stop-color="#253027"/></linearGradient><linearGradient id="moss" x1="0" y1="0" x2="1" y2="1"><stop stop-color="#8aae50"/><stop offset="1" stop-color="#355f38"/></linearGradient><linearGradient id="water" x1="0" y1="0" x2="0" y2="1"><stop stop-color="#d9ffff"/><stop offset=".35" stop-color="#58d8e8"/><stop offset="1" stop-color="#237a9a"/></linearGradient></defs><path fill="url(#stone)" stroke="#17251b" stroke-width="11" d="M70 778 Q210 738 350 746 H1570 Q1710 738 1850 778 L1800 948 Q1600 984 1425 958 H495 Q315 984 120 948Z"/><path fill="#68745e" stroke="#304031" stroke-width="8" d="M98 754 Q220 714 365 728 H1555 Q1700 714 1822 754 L1750 824 H170Z"/><path fill="url(#moss)" opacity=".7" d="M120 742q180-42 355-18l-16 40H130zm1330-18q175-25 350 18l-10 22h-330z"/><g fill="url(#stone)" stroke="#2b392d" stroke-width="9"><path d="M120 738V420h130v318zM275 738V350h118v388zM430 738V500h110v238zM1380 738V490h112v248zM1525 738V340h122v398zM1680 738V410h126v328z"/><path d="M88 420h196v42H88zM245 350h180v42H245zM1345 490h180v42h-180zM1495 340h185v42h-185z"/></g><g fill="none" stroke="#536653" stroke-width="16"><path d="M310 740V555q0-85 78-85t78 85v185"/><path d="M1455 740V550q0-86 80-86t80 86v190"/></g><g fill="#3f7b3e" stroke="#25512c" stroke-width="6"><circle cx="145" cy="390" r="78"/><circle cx="240" cy="340" r="98"/><circle cx="355" cy="380" r="85"/><circle cx="1565" cy="370" r="88"/><circle cx="1680" cy="330" r="104"/><circle cx="1790" cy="395" r="78"/></g><g fill="#5b8e44"><path d="M150 450q40 80 18 270h42q16-180-18-275zM1715 430q-35 90-18 290h44q18-195 10-285z"/></g><path fill="url(#water)" opacity=".85" d="M1690 462h78v258q-5 38-39 64-34-26-39-64z"/><path fill="none" stroke="#caffff" stroke-width="8" opacity=".7" d="M1707 468v250q2 26 22 42"/><ellipse cx="960" cy="758" rx="248" ry="58" fill="#53614e" stroke="#9bbf7b" stroke-width="7"/><ellipse cx="960" cy="758" rx="186" ry="40" fill="none" stroke="#b9d58b" stroke-width="4"/><g fill="#6f9e4e"><path d="M600 722q70-55 135 0-56-12-135 0zM1185 722q70-55 135 0-60-12-135 0z"/></g><g stroke="#84683d" stroke-width="12" fill="none"><path d="M620 675q100 72 200 0"/><path d="M1100 675q100 72 200 0"/></g></svg>